<?xml version="1.0" standalone="no"?>
<!DOCTYPE svg PUBLIC "-//W3C//DTD SVG 20010904//EN"
 "http://www.w3.org/TR/2001/REC-SVG-20010904/DTD/svg10.dtd">
<svg version="1.0" xmlns="http://www.w3.org/2000/svg"
 width="500.000000pt" height="500.000000pt" viewBox="0 0 500.000000 500.000000"
 preserveAspectRatio="xMidYMid meet">

<g transform="translate(0.000000,500.000000) scale(0.100000,-0.100000)"
fill="#000000" stroke="none">
<path d="M1017 2994 l-457 -275 2 -340 3 -340 445 -271 c245 -149 451 -272
458 -275 9 -4 12 57 12 283 l0 289 -275 154 c-151 84 -275 155 -275 156 0 1
124 72 275 156 l275 154 0 293 c0 160 -1 292 -2 292 -2 -1 -209 -125 -461
-276z"/>
<path d="M3522 2957 l3 -292 267 -150 c147 -82 269 -152 272 -155 3 -3 -117
-74 -267 -157 l-272 -151 -3 -291 c-1 -160 1 -291 4 -291 4 0 211 123 460 273
l453 272 -2 339 -2 340 -240 146 c-132 80 -338 205 -458 277 l-217 132 2 -292z"/>
<path d="M1850 3055 l0 -75 110 0 110 0 0 75 0 75 -110 0 -110 0 0 -75z"/>
<path d="M2285 2921 c-92 -24 -161 -89 -188 -175 -8 -28 -12 -121 -12 -301 0
-251 1 -262 24 -313 46 -103 140 -150 278 -139 132 10 209 69 233 180 8 34 10
142 8 312 -3 243 -4 263 -24 300 -30 55 -71 94 -121 117 -48 21 -152 31 -198
19z m109 -183 c24 -34 24 -539 0 -562 -21 -22 -61 -20 -74 3 -6 12 -10 121
-10 285 0 227 2 267 16 280 22 22 50 20 68 -6z"/>
<path d="M2833 2920 c-56 -12 -81 -25 -126 -69 -60 -57 -67 -97 -67 -371 0
-263 7 -324 48 -389 43 -70 102 -96 222 -96 79 0 103 4 142 23 80 39 115 110
125 250 l6 82 -112 0 -111 0 0 -76 c0 -85 -11 -114 -43 -114 -48 0 -52 11 -55
150 l-4 130 161 0 161 0 0 138 c0 205 -33 287 -130 326 -50 20 -161 28 -217
16z m117 -181 c6 -10 10 -56 10 -103 l0 -86 -50 0 -50 0 0 88 c0 88 8 115 40
124 21 7 39 -1 50 -23z"/>
<path d="M1850 2489 c0 -422 0 -431 -20 -436 -18 -5 -20 -14 -20 -78 l0 -73
40 -7 c84 -14 165 18 197 77 16 30 18 72 21 491 l3 457 -111 0 -110 0 0 -431z"/>
</g>
</svg>
